<?xml version="1.0" encoding="UTF-8"?>
<svg width="81px" height="46px" viewBox="0 0 81 46" version="1.1" xmlns="http://www.w3.org/2000/svg" xmlns:xlink="http://www.w3.org/1999/xlink">
    <title>Group 6</title>
    <defs>
        <polygon id="path-1" points="0 0 30 0 30 16 0 16"></polygon>
    </defs>
    <g id="Design" stroke="none" stroke-width="1" fill="none" fill-rule="evenodd">
        <g id="insect-Guide-Mobile" transform="translate(-26.000000, -158.000000)">
            <g id="Group-6" transform="translate(26.000000, 158.000000)">
                <g id="fish-insect-toggle">
                    <ellipse id="Oval" fill="#FFFFFF" cx="23.5" cy="23" rx="23.5" ry="23"></ellipse>
                    <path d="M20.0128775,16.8579085 C19.6379882,13.7682447 18.1377649,12.1081053 17.4608999,11.9056404 C16.6648426,11.6678074 15.3873555,12.4675615 14.937222,11.7356566 C14.4874213,11.0041126 15.6700208,9.81422568 17.5711027,10.2985533 C21.2960246,11.2469982 21.9129606,17.3729126 21.9129606,17.3729126 C21.9129606,17.3729126 23.6588929,9.89254095 26.8884015,10.0011718 C29.0877968,10.0755172 29.0361912,11.0549994 29.0135514,11.4104858 C28.9672729,12.1438344 27.0452158,11.7753556 26.3310616,12.0842859 C24.794215,12.7501461 23.8882879,17.2372143 23.8882879,17.2372143 C26.6520148,14.044694 29.5192858,11.9872038 32.1138797,13.6058397 C34.0525837,14.8152152 34.0306097,19.696386 33.9889923,20.8418822 C33.7639255,27.0212099 28.7135733,27.3193131 28.7135733,27.3193131 C30.1255678,30.9340863 28.1172795,32.3820166 27.6105463,32.6162406 C24.3467449,34.1240803 22.2062799,30.7020277 22.2062799,30.7020277 C19.6383211,34.0659754 16.5882666,32.6743455 16.5882666,32.6743455 C13.6990217,30.8759814 15.5718038,27.5701386 15.5718038,27.5701386 C12.2007961,26.8162187 10.1675374,24.3801446 10.0070608,19.3340425 C9.84625121,14.2879405 12.4711426,13.2860825 13.9131015,13.1861132 C16.42779,13.0121595 20.0128775,16.8579085 20.0128775,16.8579085" id="Fill-1" fill="#F9CF4B"></path>
                    <ellipse id="Oval-Copy" fill="#FFFFFF" cx="57.5" cy="23" rx="23.5" ry="23"></ellipse>
                    <g id="fish-graphic" transform="translate(43.000000, 15.000000)">
                        <mask id="mask-2" fill="white">
                            <use xlink:href="#path-1"></use>
                        </mask>
                        <g id="Clip-5"></g>
                        <path d="M5.00404374,8.86773635 C5.91401681,8.88979775 6.81164588,8.0161664 6.82588894,7.09431515 C6.84044851,6.15733607 5.98649814,5.32373041 5.02145192,5.33129431 C4.09818534,5.33917338 3.30532186,6.10596453 3.27620272,7.02088221 C3.24518451,7.97992268 4.05450664,8.84472946 5.00404374,8.86773635 M12.2806631,0 C15.8436429,0.115664756 19.340155,1.66279905 21.8013552,5.27488017 C21.9836663,5.5424534 22.7281034,5.70539258 23.0376525,5.55726606 C23.8061445,5.19041653 24.419229,4.48886409 25.1959503,4.15542182 C26.2087899,3.72018196 27.3070878,3.31961001 28.3895602,3.2553168 C29.5853439,3.18503549 30.252552,3.97042124 29.8477326,5.08956443 C29.1150065,7.11448557 29.0691122,8.96197003 29.8676729,10.9950854 C30.3275654,12.1662305 29.5422982,12.9721018 28.2306709,12.8961476 C27.2846155,12.8409941 26.3376105,12.4968363 25.4320686,12.1690669 C24.8914654,11.9733508 24.4097336,11.5882218 23.9387632,11.2383911 C23.0142306,10.5525968 22.3074585,10.4716 21.4819942,11.5242438 C19.6332455,13.8800859 17.2613018,15.5690435 14.1965125,15.8621449 C10.5151571,16.2148121 6.88665932,16.0099562 3.67690738,13.820205 C2.24627147,12.8441457 1.18120735,11.5680514 0.528875353,9.96418781 C-0.439335985,7.58407817 -0.110479633,5.45420781 1.78321387,3.63067572 C4.51756423,0.997490335 7.87892559,0.0611415877 12.2806631,0" id="Fill-4" fill="#7E756E" mask="url(#mask-2)"></path>
                        <path d="M5.01274125,8.72685209 C4.04616281,8.70319822 3.22231579,7.81407217 3.25389069,6.82806248 C3.28353243,5.88741636 4.09062542,5.09906224 5.03046186,5.09096161 C6.01282774,5.08318499 6.88210395,5.94023252 6.86728308,6.90356043 C6.85278441,7.8513351 5.93904559,8.74953387 5.01274125,8.72685209" id="Fill-7" fill="#FFFFFF" mask="url(#mask-2)"></path>
                    </g>
                </g>
            </g>
        </g>
    </g>
</svg>