<?xml version="1.0" encoding="UTF-8"?>
<svg width="1442px" height="107px" viewBox="0 0 1442 107" version="1.1" xmlns="http://www.w3.org/2000/svg" xmlns:xlink="http://www.w3.org/1999/xlink">
    <title>Group 4</title>
    <g id="Design" stroke="none" stroke-width="1" fill="none" fill-rule="evenodd">
        <g id="Insect-Guide" transform="translate(0.000000, -155.000000)" fill="#EAE7D9">
            <g id="tan-BG" transform="translate(0.000000, 155.000000)">
                <g id="Group">
                    <g id="Group-4">
                        <path d="M988,28.837084 C926.866043,28.837084 917.042653,0 855.910777,0 C794.774739,0 794.774739,28.837084 733.638701,28.837084 C672.504744,28.837084 672.504744,0 611.370787,0 C550.23683,0 550.23683,28.837084 489.104954,28.837084 C427.968916,28.837084 427.968916,0 366.83496,0 C305.69684,0 305.69684,28.837084 244.558721,28.837084 C183.420602,28.837084 183.420602,0 122.280401,0 C61.1402005,0 61.1402005,28.837084 0,28.837084 L0,107 L988,107 L988,28.837084 Z" id="Stroke-1"></path>
                        <path d="M1440.40776,25.7441365 C1406.56424,18.4714925 1398.63215,0 1349.37079,0 C1288.23683,0 1288.23683,28.837084 1227.10495,28.837084 C1165.96892,28.837084 1165.96892,0 1104.83496,0 C1043.69684,0 1043.69684,28.837084 982.558721,28.837084 C921.420602,28.837084 921.420602,0 860.280401,0 C799.140201,0 799.140201,28.837084 738,28.837084 L738,107 L1441.24408,107 C1440.44168,52.8225094 1440.16291,25.7372216 1440.40776,25.7441365 Z" id="Stroke-1-Copy"></path>
                    </g>
                </g>
            </g>
        </g>
    </g>
</svg>